<?xml version="1.0" encoding="UTF-8"?>
<svg xmlns="http://www.w3.org/2000/svg" viewBox="30 138 517 327">
<path d="M434.25 335.8C435.28 330.95 431.3 325.35 432.73 320.44C433.62 317.38 437.12 314.3 438.78 311.56C442.97 304.7 445.02 295.24 444.73 287.25C443.65 257.45 414.87 234.26 385.47 243.25C373.48 246.92 363.64 256.54 354.91 265.16C351.39 268.64 347.55 274.05 343.25 276.39C338.25 269.65 333.25 262.92 328.25 256.18C331.34 250.12 340.35 243.33 345.55 238.79C355.91 229.76 366.37 221.79 379.9 218.21C411.46 209.86 446.38 224.39 461.81 253.4C470.67 270.06 473.4 291.33 467.75 309.54C466.28 314.27 464.54 319.4 461.84 323.61C460.5 325.7 457.23 328.75 456.99 331.25C456.75 333.72 458.13 336.65 458.73 339.02C460.52 345.96 464 355.74 463.91 362.75C459.96 363.54 455.05 361.84 451.09 361.23C442.31 359.89 433.08 357.63 424.24 357.16C419.78 356.92 412.33 360.38 407.25 360.9C388.69 362.81 371.12 358.91 356.08 347.66C336.47 332.97 320.68 311.9 306.69 292.04C298.7 280.7 289.88 269.86 281.32 258.94C270.4 245.01 259.25 231.09 246.32 218.95C219.11 193.4 187.36 177.52 149.1 186.78C137.57 189.57 126.6 193.97 116.46 200.23C74.82 225.93 56.64 279.54 72.23 325.56C82.82 356.82 109.77 381.98 141.05 391.71C175.05 402.28 209.47 391.79 237.49 371.74C243.72 367.28 250.01 362.12 255.4 356.66C258.28 353.75 261.17 349.74 264.75 347.76C267.13 348.86 268.6 351.51 270.2 353.57C273.45 357.75 278.95 362.26 280.72 367.25C272.25 378.8 258.92 387.96 247.37 396.13C220.77 414.94 187.84 424.41 155.27 420.83C94.43 414.13 44.51 361.27 40.95 300.25C39.99 283.75 41.74 267.32 46.81 251.61C52.82 232.98 62.19 215.77 75.38 201.13C87.95 187.17 104.34 176 121.64 168.86C136.33 162.79 151.26 159.17 167.25 158.9C178.51 158.71 189.67 159.48 200.61 162.21C254.05 175.57 288.39 224.38 319.76 265.99C334.96 286.15 354.41 316.54 375.97 329.76C383.58 334.43 392.79 336.62 401.75 335.58C406.21 335.06 410.84 333.22 415.25 333.09C421.65 332.91 427.93 336.04 434.25 335.8ZM500.92 454.75C496.07 458.19 486.92 457.44 481.25 457.18C462.69 456.35 443.18 449.55 428.14 438.6C423.57 435.28 419.38 431.35 415.38 427.37C413.74 425.73 411.83 422.43 409.64 421.57C407.24 420.63 400.73 421.54 397.75 421.37C389.82 420.91 382.03 419.86 374.34 417.83C348.44 411.02 326.21 395.09 307.33 376.42C278.15 347.56 257.1 312.27 230.15 281.61C219.96 270.02 204.99 250.62 190.89 244.35C164.11 232.44 129.63 250.39 126.02 280.25C124.78 290.58 126.39 300.84 131.24 310.04C132.94 313.26 137.11 316.81 137.92 320.28C139.09 325.27 135.38 330.61 136.25 335.64C141.94 336.3 148.37 332.73 154.25 332.77C158.34 332.79 162.19 334.62 166.25 334.96C178.38 335.98 189.46 333.57 199.59 326.81C206.76 322.02 213.51 315.92 219.6 309.84C222.27 307.18 225.39 302.47 228.75 300.94C232.11 303.02 242.6 316.93 244.1 320.75C242.12 326.03 235.23 330.66 231.13 334.39C215.79 348.34 197.63 360.17 176.25 360.86C170.42 361.06 164.35 360.88 158.62 359.7C154.84 358.92 150.57 356.79 146.75 356.84C142.84 356.89 138.74 357.98 134.91 358.72C128.98 359.87 122.88 360.4 116.89 361.23C113.66 361.67 109.71 362.93 106.55 362.25C106.28 356.07 109.62 346.65 111.25 340.47C111.97 337.74 113.71 333.8 113.25 330.95C112.72 327.65 107.8 322.03 106.2 318.59C101.88 309.3 99.8 299.48 99.39 289.25C97.3 237.01 155.24 198.93 202.39 221.35C221.08 230.24 236.24 247.84 249.23 263.53C272.5 291.64 292.5 322.61 317.41 349.35C329.3 362.12 342.33 375.58 357.98 383.74C370.63 390.34 383.91 394.91 398.25 395.62C405.94 396 413.72 393.97 421.25 394.43C424.1 396.9 425.67 400.75 428.19 403.58C434.95 411.2 446.11 422.44 456.33 424.75C457.31 422.96 455.09 414.03 454.96 411.25C454.56 402.36 456.09 393.71 459.21 385.41C463.82 373.13 473.85 364.58 481.85 354.62C491.06 343.17 497.09 329.63 500.74 315.51C504.49 301 504.31 285.12 501.25 270.54C489.71 215.69 441.98 177.65 384.82 185.2C364.62 187.87 346.64 195.97 330.41 208.19C324.92 212.32 319.82 217.37 314.93 222.19C312.8 224.28 310.44 227.88 307.75 229.02C302.43 222.6 297.11 216.17 291.79 209.75C293.87 205.06 299.43 201.32 303.12 197.87C312.75 188.86 323.38 180.86 335.07 174.78C393.98 144.18 469.58 158.98 506.7 216.04C534.57 258.88 536.8 308.08 513.79 353.58C509.2 362.66 502.44 370.9 495.78 378.54C489.89 385.31 483.15 391.15 481.2 400.37C478.34 413.89 483.04 427.75 490.25 439.02C492.91 443.17 500.15 450.31 500.92 454.75Z" fill="currentColor" fill-rule="evenodd" stroke="currentColor" stroke-width="0.25" stroke-linejoin="round"/>
</svg>
